<?xml version="1.0" encoding="utf-8"?>
<!-- Generator: Adobe Illustrator 13.0.2, SVG Export Plug-In . SVG Version: 6.00 Build 14948)  -->
<!DOCTYPE svg PUBLIC "-//W3C//DTD SVG 1.0//EN" "http://www.w3.org/TR/2001/REC-SVG-20010904/DTD/svg10.dtd">
<svg version="1.0" id="Layer_1" xmlns="http://www.w3.org/2000/svg" xmlns:xlink="http://www.w3.org/1999/xlink" x="0px" y="0px"
	 width="66px" height="66px" viewBox="0 0 66 66" enable-background="new 0 0 66 66" xml:space="preserve">
<path d="M32.955,5.104c7.686,0,14.229,2.683,19.625,8.047c2.583,2.584,4.546,5.536,5.888,8.856c1.341,3.32,2.012,6.844,2.012,10.573
	c0,3.762-0.663,7.286-1.987,10.573c-1.325,3.287-3.28,6.19-5.863,8.708c-2.682,2.649-5.724,4.678-9.125,6.084
	c-3.402,1.407-6.918,2.11-10.549,2.11s-7.106-0.694-10.426-2.085c-3.32-1.39-6.297-3.401-8.93-6.035
	c-2.633-2.632-4.636-5.601-6.01-8.905c-1.374-3.304-2.061-6.787-2.061-10.451c0-3.631,0.694-7.122,2.085-10.475
	c1.39-3.353,3.41-6.354,6.059-9.003C18.906,7.771,25.333,5.104,32.955,5.104z M33.053,10.06c-6.28,0-11.563,2.192-15.848,6.575
	c-2.159,2.192-3.819,4.653-4.98,7.384c-1.162,2.731-1.742,5.585-1.742,8.562c0,2.944,0.58,5.782,1.742,8.512
	c1.161,2.732,2.821,5.169,4.98,7.311c2.159,2.143,4.595,3.778,7.311,4.907c2.714,1.128,5.56,1.692,8.537,1.692
	c2.944,0,5.797-0.572,8.562-1.717c2.764-1.145,5.257-2.796,7.482-4.955c4.285-4.187,6.427-9.437,6.427-15.75
	c0-3.042-0.557-5.92-1.668-8.635c-1.112-2.715-2.731-5.135-4.857-7.262C44.583,12.268,39.268,10.06,33.053,10.06z M32.709,28.017
	l-3.68,1.914c-0.393-0.817-0.875-1.39-1.447-1.717c-0.573-0.327-1.104-0.491-1.595-0.491c-2.453,0-3.68,1.619-3.68,4.857
	c0,1.472,0.311,2.649,0.932,3.532c0.621,0.883,1.537,1.325,2.748,1.325c1.603,0,2.731-0.785,3.386-2.355l3.385,1.717
	c-0.72,1.342-1.717,2.396-2.993,3.165c-1.275,0.769-2.682,1.153-4.219,1.153c-2.453,0-4.433-0.752-5.937-2.257
	c-1.505-1.504-2.257-3.598-2.257-6.28c0-2.617,0.761-4.693,2.282-6.231c1.521-1.537,3.442-2.306,5.765-2.306
	C28.801,24.043,31.238,25.368,32.709,28.017z M48.557,28.017l-3.63,1.914c-0.393-0.817-0.875-1.39-1.448-1.717
	c-0.573-0.327-1.121-0.491-1.644-0.491c-2.453,0-3.68,1.619-3.68,4.857c0,1.472,0.311,2.649,0.932,3.532
	c0.621,0.883,1.537,1.325,2.748,1.325c1.603,0,2.731-0.785,3.385-2.355l3.435,1.717c-0.753,1.342-1.766,2.396-3.042,3.165
	c-1.275,0.769-2.666,1.153-4.17,1.153c-2.486,0-4.473-0.752-5.961-2.257c-1.489-1.504-2.232-3.598-2.232-6.28
	c0-2.617,0.76-4.693,2.281-6.231c1.521-1.537,3.442-2.306,5.765-2.306C44.697,24.043,47.118,25.368,48.557,28.017z"/>
</svg>
